<?xml version="1.0" standalone="no"?><svg xmlns="http://www.w3.org/2000/svg" viewBox="0 0 1440 320"><path fill="#A9A9A9" fill-opacity="0.15" d="M0,320L24,293.3C48,267,96,213,144,208C192,203,240,245,288,261.3C336,277,384,267,432,234.7C480,203,528,149,576,117.3C624,85,672,75,720,74.7C768,75,816,85,864,117.3C912,149,960,203,1008,208C1056,213,1104,171,1152,149.3C1200,128,1248,128,1296,160C1344,192,1392,256,1416,288L1440,320L1440,0L1416,0C1392,0,1344,0,1296,0C1248,0,1200,0,1152,0C1104,0,1056,0,1008,0C960,0,912,0,864,0C816,0,768,0,720,0C672,0,624,0,576,0C528,0,480,0,432,0C384,0,336,0,288,0C240,0,192,0,144,0C96,0,48,0,24,0L0,0Z"></path></svg>